<svg height="40" viewBox="0 0 512 512" width="40" xmlns="http://www.w3.org/2000/svg"><g id="Flat"><path d="m104 200h8a0 0 0 0 1 0 0v112a0 0 0 0 1 0 0h-8a56 56 0 0 1 -56-56 56 56 0 0 1 56-56z" fill="#f7ad7c"/><path d="m456 200h8a0 0 0 0 1 0 0v112a0 0 0 0 1 0 0h-8a56 56 0 0 1 -56-56 56 56 0 0 1 56-56z" fill="#f7ad7c" transform="matrix(-1 0 0 -1 864 512)"/><path d="m424 192-9.21 105.86a263.2 263.2 0 0 1 -55.25 139.82 131.714 131.714 0 0 1 -103.54 50.32 129.6 129.6 0 0 1 -16.76-1.08 131.656 131.656 0 0 1 -86.78-49.24 263.2 263.2 0 0 1 -55.25-139.82l-9.21-105.86a168 168 0 0 1 168-168q4.815 0 9.55.27a168.018 168.018 0 0 1 158.45 167.73z" fill="#fec9a3"/><path d="m424 192-9.21 105.86a263.2 263.2 0 0 1 -55.25 139.82 131.714 131.714 0 0 1 -103.54 50.32 129.6 129.6 0 0 1 -16.76-1.08 245.239 245.239 0 0 0 89.11-189.36v-109.22a244.827 244.827 0 0 0 -62.8-164.07 168.018 168.018 0 0 1 158.45 167.73z" fill="#fec093"/><g fill="#4db7e5"><path d="m472 456h-64v-16h56v-64h16v72a8 8 0 0 1 -8 8z"/><path d="m104 456h-64a8 8 0 0 1 -8-8v-72h16v64h56z"/><path d="m48 136h-16v-72a8 8 0 0 1 8-8h64v16h-56z"/><path d="m480 136h-16v-64h-56v-16h64a8 8 0 0 1 8 8z"/></g><circle cx="168" cy="256" fill="#348fd9" r="24"/><circle cx="344" cy="256" fill="#348fd9" r="24"/><path d="m248 240h16v104h-16z" fill="#f7a468"/><path d="m256 387.982a211.654 211.654 0 0 1 -41.569-4.137l3.138-15.69a194.977 194.977 0 0 0 76.862 0l3.138 15.69a211.654 211.654 0 0 1 -41.569 4.137z" fill="#f7a468"/><path d="m309.332 213.964-10.664-11.928a69.212 69.212 0 0 1 44.732-18.026c17.037-.308 32.957 5.978 46.041 18.128l-10.888 11.724c-19.953-18.534-48.421-18.49-69.221.102z" fill="#f7a468"/><path d="m202.668 213.964c-20.8-18.592-49.265-18.635-69.224-.1l-10.888-11.724c13.084-12.15 29-18.429 46.041-18.128a69.212 69.212 0 0 1 44.735 18.026z" fill="#f7a468"/></g></svg>